<svg width="164" height="156" viewBox="0 0 164 156" fill="none" xmlns="http://www.w3.org/2000/svg">
<path d="M91.0345 16.8318C85.1552 9.88356 77.4052 4.80597 68.319 2.4008L65.3793 18.7025C69.6552 20.0387 73.3966 22.4439 76.3362 25.3836L91.0345 16.8318Z" fill="#597B9E"/>
<path d="M100.388 53.4439C95.3103 74.8232 42.931 118.651 42.931 118.651C42.931 118.651 13 64.4008 13 40.3491L28.2328 43.2887C27.431 51.306 30.3707 59.056 35.7155 64.668L37.5862 54.7801C37.8534 52.9094 39.7241 51.8404 41.5948 52.1077L42.6638 52.3749C44.5345 52.6422 45.6034 54.5129 45.3362 56.3835L42.6638 70.5473C42.3965 72.418 43.4655 74.2887 45.3362 74.556L46.4052 74.8232C48.0086 75.0904 49.3448 74.2887 50.1465 72.9525L52.0172 63.5991C52.0172 63.3318 52.0172 63.3318 52.0172 63.0646C52.5517 61.4611 54.1552 60.3922 55.7586 60.6594L56.8276 60.9266C58.431 61.1939 59.7672 62.7973 59.5 64.668L57.0948 77.2284C56.8276 79.0991 57.8966 80.9698 59.7672 81.237L60.8362 81.5042C62.7069 81.7715 64.5776 80.7025 64.8448 78.8318L69.1207 56.3835C69.9224 55.0473 71.2586 54.5129 72.5948 54.7801L73.6638 55.0473C75.5345 55.3146 76.6035 57.1853 76.3362 59.056L74.7328 67.0732C79.5431 63.0646 83.0172 57.4525 84.0862 50.7715C85.1552 44.6249 84.3535 38.4784 81.681 33.1335L96.1121 24.8491C100.922 33.1335 102.793 43.2887 100.388 53.4439Z" fill="#597B9E"/>
<path d="M56.0259 17.3663L58.9655 1.06457C39.4569 -0.0043935 20.2155 12.2887 14.3362 31.2629L30.3707 34.2025C34.9138 24.0473 45.069 17.3663 56.0259 17.3663Z" stroke="#597B9E" stroke-width="0.3549" stroke-miterlimit="10"/>
<path d="M15.576 123.45V137.562H17.856V145.578H14.352V140.586H3.624V145.578H0.12V137.562H1.44C2.048 136.362 2.616 135.082 3.144 133.722C3.672 132.346 4.144 130.818 4.56 129.138C4.992 127.458 5.336 125.562 5.592 123.45H15.576ZM11.952 126.474H8.472C8.328 127.578 8.096 128.778 7.776 130.074C7.472 131.354 7.104 132.642 6.672 133.938C6.24 135.218 5.768 136.426 5.256 137.562H11.952V126.474ZM25.6001 127.242C27.4081 127.242 28.8401 127.762 29.8961 128.802C30.9521 129.826 31.4801 131.29 31.4801 133.194V134.922H23.0321C23.0641 135.93 23.3601 136.722 23.9201 137.298C24.4961 137.874 25.2881 138.162 26.2961 138.162C27.1441 138.162 27.9121 138.082 28.6001 137.922C29.2881 137.746 30.0001 137.482 30.7361 137.13V139.89C30.0961 140.21 29.4161 140.442 28.6961 140.586C27.9921 140.746 27.1361 140.826 26.1281 140.826C24.8161 140.826 23.6561 140.586 22.6481 140.106C21.6401 139.61 20.8481 138.866 20.2721 137.874C19.6961 136.882 19.4081 135.634 19.4081 134.13C19.4081 132.594 19.6641 131.322 20.1761 130.314C20.7041 129.29 21.4321 128.522 22.3601 128.01C23.2881 127.498 24.3681 127.242 25.6001 127.242ZM25.6241 129.786C24.9361 129.786 24.3601 130.01 23.8961 130.458C23.4481 130.906 23.1841 131.602 23.1041 132.546H28.1201C28.1041 131.746 27.8961 131.09 27.4961 130.578C27.0961 130.05 26.4721 129.786 25.6241 129.786ZM37.8358 127.482V132.666C37.8358 132.938 37.8198 133.274 37.7878 133.674C37.7718 134.074 37.7478 134.482 37.7158 134.898C37.6998 135.314 37.6758 135.682 37.6438 136.002C37.6118 136.322 37.5878 136.546 37.5718 136.674L43.6198 127.482H47.9158V140.586H44.4598V135.354C44.4598 134.922 44.4758 134.45 44.5078 133.938C44.5398 133.41 44.5718 132.922 44.6038 132.474C44.6518 132.01 44.6838 131.658 44.6998 131.418L38.6758 140.586H34.3798V127.482H37.8358ZM46.9318 121.842C46.8518 122.674 46.6198 123.41 46.2358 124.05C45.8518 124.674 45.2518 125.162 44.4358 125.514C43.6198 125.866 42.5238 126.042 41.1478 126.042C39.7398 126.042 38.6358 125.874 37.8358 125.538C37.0518 125.186 36.4918 124.698 36.1558 124.074C35.8198 123.45 35.6198 122.706 35.5558 121.842H38.7478C38.8278 122.722 39.0518 123.306 39.4198 123.594C39.7878 123.882 40.3878 124.026 41.2198 124.026C41.9078 124.026 42.4678 123.874 42.8998 123.57C43.3478 123.25 43.6118 122.674 43.6918 121.842H46.9318ZM56.9813 140.826C55.0293 140.826 53.5173 140.29 52.4453 139.218C51.3893 138.13 50.8613 136.426 50.8613 134.106C50.8613 132.506 51.1333 131.202 51.6773 130.194C52.2213 129.186 52.9733 128.442 53.9333 127.962C54.9093 127.482 56.0293 127.242 57.2933 127.242C58.1893 127.242 58.9653 127.33 59.6213 127.506C60.2933 127.682 60.8773 127.89 61.3733 128.13L60.3173 130.89C59.7573 130.666 59.2293 130.482 58.7333 130.338C58.2533 130.194 57.7733 130.122 57.2933 130.122C55.4373 130.122 54.5093 131.442 54.5093 134.082C54.5093 135.394 54.7493 136.362 55.2293 136.986C55.7253 137.61 56.4133 137.922 57.2933 137.922C58.0453 137.922 58.7093 137.826 59.2853 137.634C59.8613 137.426 60.4213 137.146 60.9653 136.794V139.842C60.4213 140.194 59.8453 140.442 59.2373 140.586C58.6453 140.746 57.8933 140.826 56.9813 140.826ZM74.8294 130.17H70.5334V140.586H66.9574V130.17H62.6614V127.482H74.8294V130.17ZM88.863 130.914C88.863 131.618 88.639 132.218 88.191 132.714C87.759 133.21 87.111 133.53 86.247 133.674V133.77C87.159 133.882 87.887 134.194 88.431 134.706C88.991 135.218 89.271 135.874 89.271 136.674C89.271 137.426 89.071 138.098 88.671 138.69C88.287 139.282 87.671 139.746 86.823 140.082C85.975 140.418 84.863 140.586 83.487 140.586H77.247V127.482H83.487C84.511 127.482 85.423 127.594 86.223 127.818C87.039 128.026 87.679 128.378 88.143 128.874C88.623 129.37 88.863 130.05 88.863 130.914ZM85.239 131.202C85.239 130.402 84.607 130.002 83.343 130.002H80.823V132.594H82.935C83.687 132.594 84.255 132.49 84.639 132.282C85.039 132.058 85.239 131.698 85.239 131.202ZM85.575 136.482C85.575 135.97 85.375 135.602 84.975 135.378C84.575 135.138 83.975 135.018 83.175 135.018H80.823V138.114H83.247C83.919 138.114 84.471 137.994 84.903 137.754C85.351 137.498 85.575 137.074 85.575 136.482ZM90.4688 127.482H94.3808L96.8528 134.85C96.9808 135.202 97.0768 135.57 97.1408 135.954C97.2048 136.322 97.2528 136.714 97.2848 137.13H97.3568C97.4048 136.714 97.4688 136.322 97.5488 135.954C97.6448 135.57 97.7488 135.202 97.8608 134.85L100.285 127.482H104.125L98.5808 142.266C98.0848 143.626 97.3568 144.642 96.3968 145.314C95.4528 146.002 94.3568 146.346 93.1088 146.346C92.7088 146.346 92.3568 146.322 92.0527 146.274C91.7648 146.242 91.5088 146.202 91.2848 146.154V143.322C91.4608 143.354 91.6688 143.386 91.9088 143.418C92.1648 143.45 92.4288 143.466 92.7008 143.466C93.4528 143.466 94.0448 143.234 94.4768 142.77C94.9248 142.322 95.2528 141.778 95.4608 141.138L95.6768 140.49L90.4688 127.482ZM109.461 127.482V132.666C109.461 132.938 109.445 133.274 109.413 133.674C109.397 134.074 109.373 134.482 109.341 134.898C109.325 135.314 109.301 135.682 109.269 136.002C109.237 136.322 109.213 136.546 109.197 136.674L115.245 127.482H119.541V140.586H116.085V135.354C116.085 134.922 116.101 134.45 116.133 133.938C116.165 133.41 116.197 132.922 116.229 132.474C116.277 132.01 116.309 131.658 116.325 131.418L110.301 140.586H106.005V127.482H109.461ZM118.557 121.842C118.477 122.674 118.245 123.41 117.861 124.05C117.477 124.674 116.877 125.162 116.061 125.514C115.245 125.866 114.149 126.042 112.773 126.042C111.365 126.042 110.261 125.874 109.461 125.538C108.677 125.186 108.117 124.698 107.781 124.074C107.445 123.45 107.245 122.706 107.181 121.842H110.373C110.453 122.722 110.677 123.306 111.045 123.594C111.413 123.882 112.013 124.026 112.845 124.026C113.533 124.026 114.093 123.874 114.525 123.57C114.973 123.25 115.237 122.674 115.317 121.842H118.557Z" fill="#597B9E"/>
<path d="M129.466 115.548C131.61 112.019 134.149 107.698 137.084 102.585C138.376 103.323 139.453 103.93 140.316 104.404C141.004 104.783 142.036 105.338 143.413 106.069C142.168 107.845 139.408 112.044 135.133 118.667C134.097 118.07 133.261 117.597 132.625 117.246C131.691 116.732 130.638 116.166 129.466 115.548ZM124.42 123.003C125.027 122.093 125.485 121.396 125.793 120.91C126.106 120.413 126.739 119.384 127.693 117.822C128.975 118.555 130.073 119.172 130.987 119.675C131.757 120.099 132.789 120.654 134.084 121.34C132.668 123.571 131.598 125.309 130.872 126.555C129.323 125.675 128.286 125.091 127.763 124.803C126.993 124.379 125.878 123.779 124.42 123.003Z" fill="#597B9E"/>
</svg>
